<svg viewBox="0.00 0.00 792.00 612.00" version="1.1" xmlns="http://www.w3.org/2000/svg">
<path d="M 389.19 139.32
  L 351.33 86.13
  Q 350.83 85.43 350.79 86.29
  L 346.27 169.94
  Q 346.24 170.46 345.84 170.78
  Q 325.18 187.69 310.29 209.74
  Q 307.99 213.14 305.34 215.48
  Q 302.95 217.59 254.28 260.94
  Q 253.65 261.50 254.50 261.53
  L 331.94 263.79
  Q 332.47 263.81 332.84 264.17
  Q 341.01 272.04 351.33 277.22
  C 367.71 285.44 379.38 288.45 406.52 297.38
  Q 416.99 300.83 427.22 305.07
  Q 442.54 311.43 454.71 321.02
  Q 471.50 334.23 473.00 354.80
  C 473.96 367.92 467.81 379.54 455.48 384.24
  Q 443.32 388.89 432.86 381.78
  Q 426.96 377.78 422.07 372.54
  Q 413.89 363.78 409.04 358.64
  A 0.52 0.52 0.0 0 0 408.25 358.68
  Q 398.10 371.73 374.78 401.04
  Q 371.49 405.17 368.01 407.22
  C 361.60 410.97 355.74 410.19 348.70 408.13
  Q 333.67 403.76 325.53 390.61
  Q 322.93 386.41 321.99 382.53
  C 320.23 375.28 322.48 368.10 325.81 362.05
  Q 333.80 347.56 336.36 342.86
  Q 336.65 342.33 336.04 342.33
  Q 318.58 342.34 302.50 345.94
  Q 290.49 348.62 282.06 354.28
  C 268.00 363.71 266.57 378.38 270.87 394.04
  Q 271.00 394.53 270.58 394.81
  L 222.14 427.10
  A 0.33 0.33 0.0 0 0 222.23 427.69
  L 280.02 443.81
  Q 280.54 443.95 280.82 444.41
  Q 283.85 449.42 284.03 449.72
  C 305.11 483.66 346.70 490.13 384.76 489.00
  Q 385.27 488.99 385.61 489.37
  L 418.84 526.19
  A 0.32 0.32 0.0 0 0 419.37 526.11
  L 442.86 476.40
  A 0.77 0.73 -83.8 0 1 443.32 476.01
  Q 453.50 472.94 463.60 468.83
  Q 494.11 456.40 515.11 432.50
  Q 515.47 432.09 516.01 432.10
  L 569.97 433.00
  A 0.29 0.28 75.6 0 0 570.22 432.57
  Q 550.21 397.27 536.41 373.07
  Q 528.02 358.34 522.77 338.89
  Q 522.64 338.42 522.90 338.00
  L 561.32 275.10
  A 0.28 0.28 0.0 0 0 561.06 274.67
  L 488.05 280.12
  Q 487.58 280.15 487.18 279.91
  Q 471.43 270.32 453.73 265.07
  Q 452.75 264.79 434.39 259.63
  Q 417.46 254.88 414.02 238.01
  C 411.73 226.77 415.78 215.34 422.54 206.29
  Q 429.10 197.51 439.81 190.52
  Q 443.28 188.25 447.54 187.05
  Q 463.93 182.42 472.39 196.23
  Q 475.12 200.68 476.25 204.84
  Q 477.96 211.15 479.69 214.29
  C 487.74 228.91 509.13 227.79 521.27 219.98
  C 537.60 209.48 532.24 184.28 526.48 169.53
  Q 524.79 165.19 523.48 162.01
  Q 523.28 161.53 523.59 161.11
  L 561.21 109.15
  Q 561.76 108.39 560.84 108.62
  Q 520.11 119.16 499.55 124.36
  Q 497.58 124.85 495.49 124.31
  Q 447.82 111.95 402.89 132.67
  Q 395.30 136.17 389.71 139.43
  Q 389.40 139.61 389.19 139.32" stroke-linecap="butt" fill="none" stroke-width="2.00" stroke="#808080"></path>
<path d="M 792.00 0.00
  L 792.00 612.00
  L 0.00 612.00
  L 0.00 0.00
  L 792.00 0.00
  Z
  M 389.19 139.32
  L 351.33 86.13
  Q 350.83 85.43 350.79 86.29
  L 346.27 169.94
  Q 346.24 170.46 345.84 170.78
  Q 325.18 187.69 310.29 209.74
  Q 307.99 213.14 305.34 215.48
  Q 302.95 217.59 254.28 260.94
  Q 253.65 261.50 254.50 261.53
  L 331.94 263.79
  Q 332.47 263.81 332.84 264.17
  Q 341.01 272.04 351.33 277.22
  C 367.71 285.44 379.38 288.45 406.52 297.38
  Q 416.99 300.83 427.22 305.07
  Q 442.54 311.43 454.71 321.02
  Q 471.50 334.23 473.00 354.80
  C 473.96 367.92 467.81 379.54 455.48 384.24
  Q 443.32 388.89 432.86 381.78
  Q 426.96 377.78 422.07 372.54
  Q 413.89 363.78 409.04 358.64
  A 0.52 0.52 0.0 0 0 408.25 358.68
  Q 398.10 371.73 374.78 401.04
  Q 371.49 405.17 368.01 407.22
  C 361.60 410.97 355.74 410.19 348.70 408.13
  Q 333.67 403.76 325.53 390.61
  Q 322.93 386.41 321.99 382.53
  C 320.23 375.28 322.48 368.10 325.81 362.05
  Q 333.80 347.56 336.36 342.86
  Q 336.65 342.33 336.04 342.33
  Q 318.58 342.34 302.50 345.94
  Q 290.49 348.62 282.06 354.28
  C 268.00 363.71 266.57 378.38 270.87 394.04
  Q 271.00 394.53 270.58 394.81
  L 222.14 427.10
  A 0.33 0.33 0.0 0 0 222.23 427.69
  L 280.02 443.81
  Q 280.54 443.95 280.82 444.41
  Q 283.85 449.42 284.03 449.72
  C 305.11 483.66 346.70 490.13 384.76 489.00
  Q 385.27 488.99 385.61 489.37
  L 418.84 526.19
  A 0.32 0.32 0.0 0 0 419.37 526.11
  L 442.86 476.40
  A 0.77 0.73 -83.8 0 1 443.32 476.01
  Q 453.50 472.94 463.60 468.83
  Q 494.11 456.40 515.11 432.50
  Q 515.47 432.09 516.01 432.10
  L 569.97 433.00
  A 0.29 0.28 75.6 0 0 570.22 432.57
  Q 550.21 397.27 536.41 373.07
  Q 528.02 358.34 522.77 338.89
  Q 522.64 338.42 522.90 338.00
  L 561.32 275.10
  A 0.28 0.28 0.0 0 0 561.06 274.67
  L 488.05 280.12
  Q 487.58 280.15 487.18 279.91
  Q 471.43 270.32 453.73 265.07
  Q 452.75 264.79 434.39 259.63
  Q 417.46 254.88 414.02 238.01
  C 411.73 226.77 415.78 215.34 422.54 206.29
  Q 429.10 197.51 439.81 190.52
  Q 443.28 188.25 447.54 187.05
  Q 463.93 182.42 472.39 196.23
  Q 475.12 200.68 476.25 204.84
  Q 477.96 211.15 479.69 214.29
  C 487.74 228.91 509.13 227.79 521.27 219.98
  C 537.60 209.48 532.24 184.28 526.48 169.53
  Q 524.79 165.19 523.48 162.01
  Q 523.28 161.53 523.59 161.11
  L 561.21 109.15
  Q 561.76 108.39 560.84 108.62
  Q 520.11 119.16 499.55 124.36
  Q 497.58 124.85 495.49 124.31
  Q 447.82 111.95 402.89 132.67
  Q 395.30 136.17 389.71 139.43
  Q 389.40 139.61 389.19 139.32
  Z" fill="#ffffff"></path>
<path d="M 389.19 139.32
  Q 389.40 139.61 389.71 139.43
  Q 395.30 136.17 402.89 132.67
  Q 447.82 111.95 495.49 124.31
  Q 497.58 124.85 499.55 124.36
  Q 520.11 119.16 560.84 108.62
  Q 561.76 108.39 561.21 109.15
  L 523.59 161.11
  Q 523.28 161.53 523.48 162.01
  Q 524.79 165.19 526.48 169.53
  C 532.24 184.28 537.60 209.48 521.27 219.98
  C 509.13 227.79 487.74 228.91 479.69 214.29
  Q 477.96 211.15 476.25 204.84
  Q 475.12 200.68 472.39 196.23
  Q 463.93 182.42 447.54 187.05
  Q 443.28 188.25 439.81 190.52
  Q 429.10 197.51 422.54 206.29
  C 415.78 215.34 411.73 226.77 414.02 238.01
  Q 417.46 254.88 434.39 259.63
  Q 452.75 264.79 453.73 265.07
  Q 471.43 270.32 487.18 279.91
  Q 487.58 280.15 488.05 280.12
  L 561.06 274.67
  A 0.28 0.28 0.0 0 1 561.32 275.10
  L 522.90 338.00
  Q 522.64 338.42 522.77 338.89
  Q 528.02 358.34 536.41 373.07
  Q 550.21 397.27 570.22 432.57
  A 0.29 0.28 75.6 0 1 569.97 433.00
  L 516.01 432.10
  Q 515.47 432.09 515.11 432.50
  Q 494.11 456.40 463.60 468.83
  Q 453.50 472.94 443.32 476.01
  A 0.77 0.73 -83.8 0 0 442.86 476.40
  L 419.37 526.11
  A 0.32 0.32 0.0 0 1 418.84 526.19
  L 385.61 489.37
  Q 385.27 488.99 384.76 489.00
  C 346.70 490.13 305.11 483.66 284.03 449.72
  Q 283.85 449.42 280.82 444.41
  Q 280.54 443.95 280.02 443.81
  L 222.23 427.69
  A 0.33 0.33 0.0 0 1 222.14 427.10
  L 270.58 394.81
  Q 271.00 394.53 270.87 394.04
  C 266.57 378.38 268.00 363.71 282.06 354.28
  Q 290.49 348.62 302.50 345.94
  Q 318.58 342.34 336.04 342.33
  Q 336.65 342.33 336.36 342.86
  Q 333.80 347.56 325.81 362.05
  C 322.48 368.10 320.23 375.28 321.99 382.53
  Q 322.93 386.41 325.53 390.61
  Q 333.67 403.76 348.70 408.13
  C 355.74 410.19 361.60 410.97 368.01 407.22
  Q 371.49 405.17 374.78 401.04
  Q 398.10 371.73 408.25 358.68
  A 0.52 0.52 0.0 0 1 409.04 358.64
  Q 413.89 363.78 422.07 372.54
  Q 426.96 377.78 432.86 381.78
  Q 443.32 388.89 455.48 384.24
  C 467.81 379.54 473.96 367.92 473.00 354.80
  Q 471.50 334.23 454.71 321.02
  Q 442.54 311.43 427.22 305.07
  Q 416.99 300.83 406.52 297.38
  C 379.38 288.45 367.71 285.44 351.33 277.22
  Q 341.01 272.04 332.84 264.17
  Q 332.47 263.81 331.94 263.79
  L 254.50 261.53
  Q 253.65 261.50 254.28 260.94
  Q 302.95 217.59 305.34 215.48
  Q 307.99 213.14 310.29 209.74
  Q 325.18 187.69 345.84 170.78
  Q 346.24 170.46 346.27 169.94
  L 350.79 86.29
  Q 350.83 85.43 351.33 86.13
  L 389.19 139.32
  Z" fill="#000000"></path>
</svg>
